# xmcd
#
# Track frame offsets:
#	150
#	15415
#	31142
#	48137
#	59700
#	77297
#	91632
#	107630
#	125857
#	141762
#	157212
#	169442
#	183407
#	201732
#	210000
#	218225
#	225072
#	227835
#
# Disc length: 3096 seconds
#
# Revision: 1
# Processed by: cddbd v1.5.2PL0 Copyright (c) Steve Scherf et al.
# Submitted via: EZCDAudioConverter 3.1.5.1
#
DISCID=ec0c1612
DTITLE=Varius - Το Μινόρε της Αυγής
DYEAR=1984
DGENRE=Ρεμπέτικα
TTITLE0=ΑΘΗΝΑΙΚΗ ΚΟΜΠΑΝΙΑ - ΧΩΡΙΣΑΜΕ ΕΝΑ ΔΕΙΛΙΝΟ
TTITLE1=ΑΘΗΝΑΙΚΗ ΚΟΜΠΑΝΙΑ - ΝΤΕΡΜΠΕΝΤΕΡΙΣΣΑ
TTITLE2=ΑΘΗΝΑΙΚΗ ΚΟΜΠΑΝΙΑ - ΣΤΟΝ ΠΕΙΡΑΙΑ ΣΥΝΝΕΦΙΑΣΕ
TTITLE3=ΑΘΗΝΑΙΚΗ ΚΟΜΠΑΝΙΑ - Ο ΑΝΤΩΝΗΣ Ο ΒΑΡΚΑΡΗΣ
TTITLE4=ΜΙΧΑΛΗΣ ΓΕΝΙΤΣΑΡΗΣ - ΤΟ ΑΜΑΡΤΩΛΟ ΣΟΥ ΒΑΔΙΣΜΑ
TTITLE5=ΓΙΩΡΓΟΣ ΞΗΝΤΑΡΗΣ - ΟΙ ΜΗΧΑΝΕΣ
TTITLE6=ΑΘΗΝΑΙΚΗ ΚΟΜΠΑΝΙΑ - ΤΟ ΒΟΥΝΟ
TTITLE7=ΜΙΧΑΛΗΣ ΓΕΝΙΤΣΑΡΗΣ - ΘΑ ΣΑΛΤΑΡΩ ΘΑ ΣΑΛΤΑΡΩ
TTITLE8=ΧΑΡΙΣ ΑΛΕΞΙΟΥ - ΑΣ ΜΗ ΞΗΜΕΡΩΝΕ ΠΟΤΕ
TTITLE9=ΑΘΗΝΑΙΚΗ ΚΟΜΠΑΝΙΑ - ΕΝΑΣ ΔΙΑΒΑΤΗΣ
TTITLE10=ΑΘΗΝΑΙΚΗ ΚΟΜΠΑΝΙΑ - Ο ΠΑΣΑΤΕΜΠΟΣ
TTITLE11=ΜΙΧΑΛΗΣ ΓΕΝΙΤΣΑΡΗΣ - ΜΕΣ ΤΗΝ ΦΥΛΑΚΗ ΠΟΥ ΜΠΗΚΑ
TTITLE12=ΓΙΩΡΓΟΣ ΞΗΝΤΑΡΗΣ - ΚΑΡΔΙΑ ΠΑΡΑΠΟΝΙΑΡΑ
TTITLE13=ΑΘΗΝΑΙΚΗ ΚΟΜΠΑΝΙΑ - ΣΑΠΙΟ ΣΑΝΙΔΙ
TTITLE14=ΑΘΗΝΑΙΚΗ ΚΟΜΠΑΝΙΑ - ΕΙΜΑΣΤΕ ΑΛΑΝΙΑ
TTITLE15=ΑΘΗΝΑΙΚΗ ΚΟΜΠΑΝΙΑ - ΤΟ ΔΙΚΟ ΜΟΥ ΤΟ ΜΑΡΑΖΙ
TTITLE16=ΑΘΗΝΑΙΚΗ ΚΟΜΠΑΝΙΑ - ΒΑΓΓΕΛΙΩ ΔΕΝ ΕΙΣΑΙ ΕΝΤΑΞΕΙ
TTITLE17=ΑΘΗΝΑΙΚΗ ΚΟΜΠΑΝΙΑ -  ΤΡΑΒΑ ΤΡΑΒΑ
EXTD=
EXTT0=
EXTT1=
EXTT2=
EXTT3=
EXTT4=
EXTT5=
EXTT6=
EXTT7=
EXTT8=
EXTT9=
EXTT10=
EXTT11=
EXTT12=
EXTT13=
EXTT14=
EXTT15=
EXTT16=
EXTT17=
PLAYORDER=
